<svg xmlns="http://www.w3.org/2000/svg" viewBox="0 0 1200 498" width="1200" height="498" role="img" aria-label="What is included (light)">
  <title>What is included (light)</title>
  <desc>What is included: Dashboard: The real Supabase Studio, with multiple organizations and projects. Every project: Postgres, Auth, REST, GraphQL, Realtime, Storage, Edge Functions and custom domains. Branching: Schema-only branches or full copies of your data, for previews and agents. Backups: Point-in-time restore from the dashboard, including Storage files. Teams: Organizations, roles, invitations, SAML single sign-on and MFA. API keys: Publishable and secret keys, legacy JWT keys and key rotation. Operations: Automatic HTTPS, health checks, alerts and signed updates. AWS: A one-field CloudFormation template. Generated by brand/build.py.</desc>
  <rect x="1" y="1" width="590" height="110" rx="10" fill="#f4f4f4" stroke="#c9c9c9" stroke-width="1.5"/>
  <g transform="translate(31 35) scale(0.9167)" fill="none" stroke="#0b0b0b" stroke-width="4" stroke-linejoin="miter" stroke-linecap="butt"><rect x="5" y="7" width="38" height="34"/><path d="M18 7V41"/><path stroke="none" fill="#0b0b0b" d="M25 15h13v7H25z"/><path d="M25 30h13"/></g>
  <text x="101" y="45" font-family="-apple-system, BlinkMacSystemFont, 'Segoe UI', Inter, Helvetica, Arial, sans-serif" font-size="24" font-weight="700" fill="#0b0b0b" text-anchor="start">Dashboard</text>
  <text x="101" y="72" font-family="-apple-system, BlinkMacSystemFont, 'Segoe UI', Inter, Helvetica, Arial, sans-serif" font-size="17" font-weight="400" fill="#595959" text-anchor="start">The real Supabase Studio, with multiple</text>
  <text x="101" y="95" font-family="-apple-system, BlinkMacSystemFont, 'Segoe UI', Inter, Helvetica, Arial, sans-serif" font-size="17" font-weight="400" fill="#595959" text-anchor="start">organizations and projects</text>
  <rect x="609" y="1" width="590" height="110" rx="10" fill="#f4f4f4" stroke="#c9c9c9" stroke-width="1.5"/>
  <g transform="translate(639 35) scale(0.9167)" fill="none" stroke="#0b0b0b" stroke-width="4" stroke-linejoin="miter" stroke-linecap="butt"><path d="M24 6L42 15L24 24L6 15Z"/><path d="M6 24L24 33L42 24"/><path d="M6 33L24 42L42 33"/></g>
  <text x="709" y="45" font-family="-apple-system, BlinkMacSystemFont, 'Segoe UI', Inter, Helvetica, Arial, sans-serif" font-size="24" font-weight="700" fill="#0b0b0b" text-anchor="start">Every project</text>
  <text x="709" y="72" font-family="-apple-system, BlinkMacSystemFont, 'Segoe UI', Inter, Helvetica, Arial, sans-serif" font-size="17" font-weight="400" fill="#595959" text-anchor="start">Postgres, Auth, REST, GraphQL, Realtime,</text>
  <text x="709" y="95" font-family="-apple-system, BlinkMacSystemFont, 'Segoe UI', Inter, Helvetica, Arial, sans-serif" font-size="17" font-weight="400" fill="#595959" text-anchor="start">Storage, Edge Functions and custom domains</text>
  <rect x="1" y="129" width="590" height="110" rx="10" fill="#f4f4f4" stroke="#c9c9c9" stroke-width="1.5"/>
  <g transform="translate(31 163) scale(0.9167)" fill="none" stroke="#0b0b0b" stroke-width="4" stroke-linejoin="miter" stroke-linecap="butt"><path d="M14 10V38"/><path d="M34 10V20L14 32"/><path stroke="none" fill="#0b0b0b" d="M9 5h10v10H9zM29 5h10v10H29zM9 33h10v10H9z"/></g>
  <text x="101" y="173" font-family="-apple-system, BlinkMacSystemFont, 'Segoe UI', Inter, Helvetica, Arial, sans-serif" font-size="24" font-weight="700" fill="#0b0b0b" text-anchor="start">Branching</text>
  <text x="101" y="200" font-family="-apple-system, BlinkMacSystemFont, 'Segoe UI', Inter, Helvetica, Arial, sans-serif" font-size="17" font-weight="400" fill="#595959" text-anchor="start">Schema-only branches or full copies of your</text>
  <text x="101" y="223" font-family="-apple-system, BlinkMacSystemFont, 'Segoe UI', Inter, Helvetica, Arial, sans-serif" font-size="17" font-weight="400" fill="#595959" text-anchor="start">data, for previews and agents</text>
  <rect x="609" y="129" width="590" height="110" rx="10" fill="#f4f4f4" stroke="#c9c9c9" stroke-width="1.5"/>
  <g transform="translate(639 163) scale(0.9167)" fill="none" stroke="#0b0b0b" stroke-width="4" stroke-linejoin="miter" stroke-linecap="butt"><path d="M12.7 12.7A16 16 0 1 1 8 24"/><path d="M24 15V24L30 28"/><path stroke="none" fill="#0b0b0b" d="M2 20.5L14 25.5L8 11.5Z"/></g>
  <text x="709" y="173" font-family="-apple-system, BlinkMacSystemFont, 'Segoe UI', Inter, Helvetica, Arial, sans-serif" font-size="24" font-weight="700" fill="#0b0b0b" text-anchor="start">Backups</text>
  <text x="709" y="200" font-family="-apple-system, BlinkMacSystemFont, 'Segoe UI', Inter, Helvetica, Arial, sans-serif" font-size="17" font-weight="400" fill="#595959" text-anchor="start">Point-in-time restore from the dashboard,</text>
  <text x="709" y="223" font-family="-apple-system, BlinkMacSystemFont, 'Segoe UI', Inter, Helvetica, Arial, sans-serif" font-size="17" font-weight="400" fill="#595959" text-anchor="start">including Storage files</text>
  <rect x="1" y="257" width="590" height="110" rx="10" fill="#f4f4f4" stroke="#c9c9c9" stroke-width="1.5"/>
  <g transform="translate(31 291) scale(0.9167)" fill="none" stroke="#0b0b0b" stroke-width="4" stroke-linejoin="miter" stroke-linecap="butt"><circle cx="24" cy="15" r="7"/><path d="M9 41V35L16 28H32L39 35V41Z"/></g>
  <text x="101" y="301" font-family="-apple-system, BlinkMacSystemFont, 'Segoe UI', Inter, Helvetica, Arial, sans-serif" font-size="24" font-weight="700" fill="#0b0b0b" text-anchor="start">Teams</text>
  <text x="101" y="328" font-family="-apple-system, BlinkMacSystemFont, 'Segoe UI', Inter, Helvetica, Arial, sans-serif" font-size="17" font-weight="400" fill="#595959" text-anchor="start">Organizations, roles, invitations, SAML single</text>
  <text x="101" y="351" font-family="-apple-system, BlinkMacSystemFont, 'Segoe UI', Inter, Helvetica, Arial, sans-serif" font-size="17" font-weight="400" fill="#595959" text-anchor="start">sign-on and MFA</text>
  <rect x="609" y="257" width="590" height="110" rx="10" fill="#f4f4f4" stroke="#c9c9c9" stroke-width="1.5"/>
  <g transform="translate(639 291) scale(0.9167)" fill="none" stroke="#0b0b0b" stroke-width="4" stroke-linejoin="miter" stroke-linecap="butt"><circle cx="15" cy="24" r="9"/><path d="M24 24H44"/><path d="M34 24V32M41 24V30"/></g>
  <text x="709" y="301" font-family="-apple-system, BlinkMacSystemFont, 'Segoe UI', Inter, Helvetica, Arial, sans-serif" font-size="24" font-weight="700" fill="#0b0b0b" text-anchor="start">API keys</text>
  <text x="709" y="328" font-family="-apple-system, BlinkMacSystemFont, 'Segoe UI', Inter, Helvetica, Arial, sans-serif" font-size="17" font-weight="400" fill="#595959" text-anchor="start">Publishable and secret keys, legacy JWT keys</text>
  <text x="709" y="351" font-family="-apple-system, BlinkMacSystemFont, 'Segoe UI', Inter, Helvetica, Arial, sans-serif" font-size="17" font-weight="400" fill="#595959" text-anchor="start">and key rotation</text>
  <rect x="1" y="385" width="590" height="110" rx="10" fill="#f4f4f4" stroke="#c9c9c9" stroke-width="1.5"/>
  <g transform="translate(31 419) scale(0.9167)" fill="none" stroke="#0b0b0b" stroke-width="4" stroke-linejoin="miter" stroke-linecap="butt"><path d="M24 5L40 11V24L24 43L8 24V11Z"/><path d="M16 23L22 29L32 18"/></g>
  <text x="101" y="429" font-family="-apple-system, BlinkMacSystemFont, 'Segoe UI', Inter, Helvetica, Arial, sans-serif" font-size="24" font-weight="700" fill="#0b0b0b" text-anchor="start">Operations</text>
  <text x="101" y="456" font-family="-apple-system, BlinkMacSystemFont, 'Segoe UI', Inter, Helvetica, Arial, sans-serif" font-size="17" font-weight="400" fill="#595959" text-anchor="start">Automatic HTTPS, health checks, alerts and</text>
  <text x="101" y="479" font-family="-apple-system, BlinkMacSystemFont, 'Segoe UI', Inter, Helvetica, Arial, sans-serif" font-size="17" font-weight="400" fill="#595959" text-anchor="start">signed updates</text>
  <rect x="609" y="385" width="590" height="110" rx="10" fill="#f4f4f4" stroke="#c9c9c9" stroke-width="1.5"/>
  <g transform="translate(639 419) scale(0.9167)" fill="none" stroke="#0b0b0b" stroke-width="4" stroke-linejoin="miter" stroke-linecap="butt"><path d="M14 37A8 8 0 0 1 12.8 21.2A12 12 0 0 1 35.6 19.2A9 9 0 0 1 35 37Z"/></g>
  <text x="709" y="429" font-family="-apple-system, BlinkMacSystemFont, 'Segoe UI', Inter, Helvetica, Arial, sans-serif" font-size="24" font-weight="700" fill="#0b0b0b" text-anchor="start">AWS</text>
  <text x="709" y="456" font-family="-apple-system, BlinkMacSystemFont, 'Segoe UI', Inter, Helvetica, Arial, sans-serif" font-size="17" font-weight="400" fill="#595959" text-anchor="start">A one-field CloudFormation template</text>
</svg>
